<svg xmlns="http://www.w3.org/2000/svg" fill="#fff" height="64" width="64" viewBox="0 0 32 32"><path d="M16.5 24c-.277 0-.5.446-.5 1v.293l-.207-.207c-.392-.392-.865-.55-1.06-.354-.197.196-.039.67.353 1.061l.207.207H15c-.554 0-1 .223-1 .5s.446.5 1 .5h.293l-.207.207c-.392.392-.55.865-.354 1.06s.67.039 1.061-.353l.207-.207V28c0 .554.223 1 .5 1s.5-.446.5-1v-.293l.207.207c.392.392.865.55 1.06.354.197-.196.039-.67-.353-1.061L17.707 27H18c.554 0 1-.223 1-.5s-.446-.5-1-.5h-.293l.207-.207c.392-.392.55-.865.354-1.06-.196-.196-.67-.039-1.061.353l-.207.207V25c0-.554-.223-1-.5-1zm-6 0c-.277 0-.5.446-.5 1v.293l-.207-.207c-.392-.392-.865-.55-1.06-.354-.197.196-.039.67.353 1.061l.207.207H9c-.554 0-1 .223-1 .5s.446.5 1 .5h.293l-.207.207c-.392.392-.55.865-.354 1.06s.67.039 1.061-.353l.207-.207V28c0 .554.223 1 .5 1s.5-.446.5-1v-.293l.207.207c.392.392.865.55 1.06.354.197-.196.039-.67-.353-1.061L11.707 27H12c.554 0 1-.223 1-.5s-.446-.5-1-.5h-.293l.207-.207c.392-.392.55-.865.354-1.06-.196-.196-.67-.039-1.061.353l-.207.207V25c0-.554-.223-1-.5-1zm8-5c-.277 0-.5.446-.5 1v.293l-.207-.207c-.392-.392-.865-.55-1.06-.354-.197.196-.039.67.353 1.061l.207.207H17c-.554 0-1 .223-1 .5s.446.5 1 .5h.293l-.207.207c-.392.392-.55.865-.354 1.06s.67.039 1.061-.353l.207-.207V23c0 .554.223 1 .5 1s.5-.446.5-1v-.293l.207.207c.392.392.865.55 1.06.354.197-.196.039-.67-.353-1.061L19.707 22H20c.554 0 1-.223 1-.5s-.446-.5-1-.5h-.293l.207-.207c.392-.392.55-.865.354-1.06-.196-.196-.67-.039-1.061.353l-.207.207V20c0-.554-.223-1-.5-1zm-6 0c-.277 0-.5.446-.5 1v.293l-.207-.207c-.392-.392-.865-.55-1.06-.354-.197.196-.039.67.353 1.061l.207.207H11c-.554 0-1 .223-1 .5s.446.5 1 .5h.293l-.207.207c-.392.392-.55.865-.354 1.06s.67.039 1.061-.353l.207-.207V23c0 .554.223 1 .5 1s.5-.446.5-1v-.293l.207.207c.392.392.865.55 1.06.354.197-.196.039-.67-.353-1.061L13.707 22H14c.554 0 1-.223 1-.5s-.446-.5-1-.5h-.293l.207-.207c.392-.392.55-.865.354-1.06-.196-.196-.67-.039-1.061.353l-.207.207V20c0-.554-.223-1-.5-1zM15 7a7.996 7.996 0 00-7.416 5.016A6 6 0 002 18a5.993 5.993 0 005.55 5.973L8.69 22H8a4 4 0 010-8c.361.001.72.051 1.068.148A6 6 0 0115 9a5.998 5.998 0 015.883 4.846A4.5 4.5 0 0123.5 13a4.5 4.5 0 110 9H23l-1.152 2H23.5a6.5 6.5 0 000-13c-.499 0-.995.062-1.48.178A8 8 0 0015 7z"/></svg>