<svg xmlns="http://www.w3.org/2000/svg" fill="#fff" height="64" width="64" viewBox="0 0 32 32"><path d="M24.608 8a3.507 3.507 0 00-2.582 1.022c-.982.942.472 2.395 1.414 1.414a1.492 1.492 0 011.81-.239c.593.342.877 1.027.7 1.688a1.492 1.492 0 01-1.45 1.111H5a1 1 0 100 2h19.5a3.508 3.508 0 003.382-2.594 3.51 3.51 0 00-1.631-3.937A3.48 3.48 0 0024.608 8zM5 17a1 1 0 000 2h11.5c.684 0 1.272.45 1.45 1.11a1.492 1.492 0 01-.7 1.688 1.492 1.492 0 01-1.81-.238c-.943-.982-2.396.472-1.415 1.414a3.508 3.508 0 004.225.557 3.51 3.51 0 001.63-3.938A3.508 3.508 0 0016.5 17z"/></svg>