<svg xmlns="http://www.w3.org/2000/svg" fill="#fff" height="64" width="64" viewBox="0 0 32 32"><path d="M10.748 2A8 8 0 0111 3.963a8 8 0 01-8.748 7.963 8 8 0 002.96 4.428A5.974 5.974 0 004 19.963a6 6 0 006 6h15.5a6.5 6.5 0 000-13c-.499 0-.996.062-1.48.178a7.995 7.995 0 00-6.085-4.113A8 8 0 0010.748 2zm2.1 2.709a5.96 5.96 0 013.076 4.336 7.995 7.995 0 00-6.34 4.933 5.97 5.97 0 00-2.867.971 6.17 6.17 0 01-1.496-1.437c4.16-.984 7.283-4.439 7.627-8.803zM17 10.963a5.998 5.998 0 015.883 4.846 4.5 4.5 0 012.617-.846 4.5 4.5 0 110 9H10a4 4 0 010-8c.361 0 .72.05 1.068.148A6 6 0 0117 10.963z"/></svg>