<svg xmlns="http://www.w3.org/2000/svg" fill="#fff" height="64" width="64" viewBox="0 0 32 32"><path d="M15 7a7.996 7.996 0 00-7.416 5.016A6 6 0 002 18a5.993 5.993 0 005.55 5.973L8.69 22H8a4 4 0 010-8c.361 0 .72.051 1.068.148A6 6 0 0115 9a5.998 5.998 0 015.883 4.846A4.5 4.5 0 0123.5 13a4.5 4.5 0 110 9H23l-1.152 2H23.5a6.5 6.5 0 000-13c-.499 0-.995.062-1.48.178A8 8 0 0015 7zm-2.5 13.135a.998.998 0 01.365 1.366l-1 1.732a.998.998 0 01-1.366.366.998.998 0 01-.366-1.366l1-1.732a.998.998 0 011.366-.366zm4 0a.998.998 0 01.365 1.366l-1 1.732a.998.998 0 01-1.366.366.998.998 0 01-.366-1.366l1-1.732a.998.998 0 011.366-.366zm4 0a.998.998 0 01.365 1.366l-1 1.732a.998.998 0 01-1.366.366.998.998 0 01-.366-1.366l1-1.732a.998.998 0 011.366-.366zm-8 5.266c.48.277.644.887.367 1.366l-1 1.732a.998.998 0 01-1.366.366.998.998 0 01-.366-1.366l1-1.732a.998.998 0 011.366-.366zm4 0c.48.277.644.887.367 1.366l-1 1.732a.998.998 0 01-1.366.366.998.998 0 01-.366-1.366l1-1.732a.998.998 0 011.366-.366z"/></svg>