<svg xmlns="http://www.w3.org/2000/svg" fill="#fff" height="64" width="64" viewBox="0 0 32 32"><path d="M15.001 7a7.996 7.996 0 00-7.416 5.016A6 6 0 002.001 18a5.993 5.993 0 005.55 5.973L8.692 22H8a4 4 0 110-8c.361 0 .72.051 1.068.149A6 6 0 0115.001 9a5.998 5.998 0 015.883 4.846A4.5 4.5 0 0123.5 13a4.5 4.5 0 110 9H23l-1.152 2H23.5a6.5 6.5 0 000-13c-.499 0-.995.062-1.48.178A8 8 0 0015 7zm-4 22a1 1 0 00-1 1 1 1 0 001 1 1 1 0 001-1 1 1 0 00-1-1zm13-2a1 1 0 00-1 1 1 1 0 001 1 1 1 0 001-1 1 1 0 00-1-1zm-23-2a1 1 0 00-1 1 1 1 0 001 1 1 1 0 001-1 1 1 0 00-1-1zm20.008-6a1 1 0 00-.88.512l-5.759 9.976a1 1 0 001.381 1.356c1.702-1.024 2.176-2.108 5.164-1.848a1 1 0 10.172-1.992 7.47 7.47 0 00-3.193.379l3.967-6.871A1 1 0 0021.009 19zm-4 0a1 1 0 00-.88.512L12.092 26.5a1 1 0 101.732 1l4.036-6.988A1 1 0 0017.009 19zm-3.992-.012a1 1 0 00-.881.512l-5.014 8.68c-.718-.942-1.554-1.831-2.885-2.154a1.001 1.001 0 10-.472 1.945c1.012.246 1.757 1.256 2.636 2.573a1 1 0 001.7-.057l5.765-9.989a1 1 0 00-.85-1.511z"/></svg>