<svg xmlns="http://www.w3.org/2000/svg" fill="#fff" height="64" width="64" viewBox="0 0 32 32"><path d="M16.001 25c-.554 0-1 .446-1 1v1c0 .554.446 1 1 1s1-.446 1-1v-1c0-.554-.446-1-1-1zm7.07-2.93a.998.998 0 00-.707 1.707l.707.707a.998.998 0 001.414 0 .998.998 0 000-1.414l-.707-.707a.996.996 0 00-.707-.293zm-14.14 0a.996.996 0 00-.708.293l-.707.707a.998.998 0 000 1.414.998.998 0 001.414 0l.707-.707a.998.998 0 00-.707-1.707zM26 15c-.555 0-1 .446-1 1s.445 1 1 1h1c.553 0 1-.446 1-1s-.447-1-1-1h-1zM5 15c-.555 0-1 .446-1 1s.445 1 1 1h1c.553 0 1-.446 1-1s-.447-1-1-1H5zm11-7a8 8 0 00-8 8 8 8 0 008 8 8 8 0 008-8 8 8 0 00-8-8zm0 2a6 6 0 016 6 6 6 0 01-6 6 6 6 0 01-6-6 6 6 0 016-6zm7.777-2.78a.998.998 0 00-.707.296l-.707.707a.998.998 0 000 1.414.998.998 0 001.414 0l.707-.707a.998.998 0 000-1.414.998.998 0 00-.707-.295zm-15.555 0a.998.998 0 00-.707.296.998.998 0 000 1.414l.707.707a.998.998 0 001.414 0 .998.998 0 000-1.414l-.707-.707a.998.998 0 00-.707-.295zM16 4c-.554 0-1 .446-1 1v1c0 .554.446 1 1 1s1-.446 1-1V5c0-.554-.446-1-1-1z"/></svg>