<svg xmlns="http://www.w3.org/2000/svg" fill="#fff" height="64" width="64" viewBox="0 0 32 32"><path d="M12 0c-.554 0-1 .446-1 1v1c0 .554.446 1 1 1s1-.446 1-1V1c0-.554-.446-1-1-1zM4.223 3.22a.998.998 0 00-.707.296.998.998 0 000 1.414l.707.707a.998.998 0 001.414 0 .998.998 0 000-1.414l-.707-.707a.998.998 0 00-.707-.295zm15.555 0a.998.998 0 00-.707.296l-.707.707a.998.998 0 000 1.414.998.998 0 001.414 0l.707-.707a.998.998 0 000-1.414.998.998 0 00-.707-.295zM12 4a8 8 0 00-8 8c0 1.59.47 3.067 1.27 4.313A6 6 0 0010 26l15.5-.001a6.5 6.5 0 000-13c-.498 0-.995.062-1.48.178a7.985 7.985 0 00-4.443-3.73C18.51 6.281 15.524 4 12 4zm0 2a5.993 5.993 0 015.2 3.014c-.067 0-.132-.014-.2-.014a7.996 7.996 0 00-7.416 5.015 5.969 5.969 0 00-2.806.93A5.965 5.965 0 016 12a6 6 0 016-6zM1 11c-.554 0-1 .446-1 1s.446 1 1 1h1c.554 0 1-.446 1-1s-.446-1-1-1zm16 0a5.998 5.998 0 015.883 4.846A4.5 4.5 0 0125.5 15a4.5 4.5 0 110 9H10a4 4 0 010-8c.362 0 .721.051 1.069.148A6 6 0 0117 11z"/></svg>